/* XPM */
static char *_7dfc3333d04464fef2787e691e90bb9S9QzZDpbXvV1XL5v[] = {
/* columns rows colors chars-per-pixel */
"32 32 196 2 ",
"   c None",
".  c #00469A",
"X  c #0049A2",
"o  c #0056B0",
"O  c #0059B4",
"+  c #0E65AE",
"@  c #1563A9",
"#  c #0072A6",
"$  c #007FAA",
"%  c #0066BD",
"&  c #0867BC",
"*  c #006ABC",
"=  c #146AB4",
"-  c #166DBB",
";  c #1B68B8",
":  c #1D66B3",
">  c #0870B3",
",  c #0779BD",
"<  c #1474BC",
"1  c #1F7BB5",
"2  c #2D73BF",
"3  c #0F67C1",
"4  c #0C6FC7",
"5  c #076CCB",
"6  c #0A6EC8",
"7  c #0271C4",
"8  c #007EC3",
"9  c #0D75C7",
"0  c #1570C1",
"q  c #1C71C2",
"w  c #157BC3",
"e  c #1575CA",
"r  c #1B77C6",
"t  c #056ED0",
"y  c #0A72D5",
"u  c #0777DD",
"i  c #0A7CDE",
"p  c #0B7FD5",
"a  c #347BC4",
"s  c #277CD8",
"d  c #008AAB",
"f  c #008BBD",
"g  c #1D84B9",
"h  c #1894BF",
"j  c #00ACB3",
"k  c #00B5B7",
"l  c #00BAB6",
"z  c #00B8BF",
"x  c #0B87CB",
"c  c #1183CC",
"v  c #1886CF",
"b  c #1582C6",
"n  c #0F9DC0",
"m  c #0A98CD",
"M  c #1495CA",
"N  c #0F86D0",
"B  c #0A86DC",
"V  c #168BD4",
"C  c #1489D9",
"Z  c #0E93DB",
"A  c #0D9BD0",
"S  c #199BDD",
"D  c #1599DD",
"F  c #2787C0",
"G  c #2B83CD",
"H  c #278BCB",
"J  c #2C9CCA",
"K  c #2A81DF",
"L  c #2089DD",
"P  c #318ED8",
"I  c #2892D8",
"U  c #369CDB",
"Y  c #0DA4CF",
"T  c #10A8C6",
"R  c #17A8CD",
"E  c #19A2CE",
"W  c #00B3CE",
"Q  c #1EBDC5",
"!  c #19A9DD",
"~  c #00BFD0",
"^  c #0CB4D5",
"/  c #14BBDA",
"(  c #23A6CC",
")  c #21B5C9",
"_  c #21A4D7",
"`  c #25AAD6",
"'  c #31A8D7",
"]  c #31A2D9",
"[  c #33B0DA",
"{  c #0C8BE9",
"}  c #1F8FE0",
"|  c #118CE6",
" . c #0D9BE8",
".. c #1798E6",
"X. c #1997E6",
"o. c #098DF6",
"O. c #0299F5",
"+. c #1093F4",
"@. c #368EE1",
"#. c #2395E3",
"$. c #229DE3",
"%. c #3D9EEF",
"&. c #0AA5E6",
"*. c #19A0E7",
"=. c #19AAE5",
"-. c #17B1E0",
";. c #19B6E8",
":. c #0DA7F4",
">. c #20AFE1",
",. c #2BAAED",
"<. c #26BEE5",
"1. c #29A7F2",
"2. c #20BEF0",
"3. c #53ACEA",
"4. c #45B4E8",
"5. c #40AFF3",
"6. c #01C3CE",
"7. c #1CC6D5",
"8. c #2CC8D5",
"9. c #0EC9E5",
"0. c #10D8EE",
"q. c #19C6F7",
"w. c #1CD4FD",
"e. c #23CDE1",
"r. c #2BC7E6",
"t. c #38CBEB",
"y. c #26D3EC",
"u. c #25CAFD",
"i. c #22D1FE",
"p. c #27D8F9",
"a. c #2FDDF8",
"s. c #2BD7F9",
"d. c #38DAF6",
"f. c #00F7EF",
"g. c #17F7EF",
"h. c #00E7F2",
"j. c #2EE9E5",
"k. c #2AE9F3",
"l. c #2AE4F8",
"z. c #31E7FD",
"x. c #3FE3F8",
"c. c #2AF9FE",
"v. c #3DF7FE",
"b. c #32FEFC",
"n. c #3CFBFE",
"m. c #40C2E7",
"M. c #5FD5EE",
"N. c #5DDDEE",
"B. c #4DC0FC",
"V. c #41DFFD",
"C. c #4FDBFE",
"Z. c #5EDFFE",
"A. c #61CFFE",
"S. c #63D8FA",
"D. c #79DCFE",
"F. c #7AD6F9",
"G. c #43FBFD",
"H. c #4AF2FE",
"J. c #53F6FE",
"K. c #53FBFF",
"L. c #5DFFF9",
"P. c #5BF4FF",
"I. c #67EFFD",
"U. c #6FE8FD",
"Y. c #70ECFE",
"T. c #78E5FD",
"R. c #62FFF9",
"E. c #6BFEFA",
"W. c #74FFFA",
"Q. c #79FFFA",
"!. c #8CEFFE",
"~. c #97E2FD",
"^. c #9FECFE",
"/. c #99EAFE",
"(. c #84FFFA",
"). c #8CFFFA",
"_. c #91FFFC",
"`. c #9BFFFB",
"'. c #9BF1FD",
"]. c #BCECFD",
"[. c #A4FEFC",
"{. c #ACFEFC",
"}. c #ABF5FE",
"|. c #BDF4FD",
" X c #B3FEFD",
".X c #BCFFFC",
"XX c #C4F2FE",
"oX c #C4FDFE",
"OX c #CCFEFD",
"+X c #D4FCFE",
"@X c #DCFEFE",
"#X c #DAF5FD",
"$X c #E2FDFE",
"%X c #EDFEFE",
"&X c #F5FEFE",
"*X c #FBFEFE",
/* pixels */
"                                                                ",
"                                                                ",
"                                                                ",
"                        6                                       ",
"                      @ < & B q.      o.                        ",
"                    %.K r - , ;.9.  :.O.    9   t               ",
"                ~.!.Y.5.,.I H Q E ^ &.&.{ D Z Z ..*.            ",
"                |.}.I.H.Y.J.j.j.r.7.N Y m m N -.0.;.            ",
"          + a /.#XOXQ.k.a.n.E.`.L.k.y.e.R n Y / { &.            ",
"          5 q [ +X*X$X).n.b.b.n.v.K.P.G.y.<.8.v 4 T x           ",
"          7 = ] }.&X*X&XOX[.K.n.c.w.2.z.R.(.C.1.,.P             ",
"            - U [.&X*X*X X`..X@X XH.i.s.V.l.u.Z.!.'.3.a         ",
"            w ' _.%X*X&X`.E.)..X$X@XoX XP.w.q.D.+X%X].          ",
"              F M.$X*X*XOXQ.L.E._.`.`. X@X.XT.T.XX$XXX          ",
"            e : U oX&X*X%X(.L.L.L.L.Q. XOXJ.W ~ S.^.            ",
"            4 - ] |.&X*X*X`.R.L.L.Q.{. Xg.z d 6.V.t.J           ",
"            4 0 I '.%X*X*X+XQ.L.Q.{.`.f.j X % >.L               ",
"        i B | c w t..X&X*X$X(.W.[.{.f.j . 7 X.! q               ",
"        v S =.S h [  X&X*X&X{. X{.f.l # 8 >.C q 3               ",
"              Z < 8.[.%X*X*X%XoXh.k d W s./ g b y               ",
"                  ( N.@X*X*X@Xa.o X x d.<.( G G                 ",
"                  2 P  X&X&X}.7 . 7 :.-.Q ` $.@.                ",
"                  @ P ^.&X*XA.o * *...e b D 2.}                 ",
"                  = a D.&X%X#.f #.V w m i   | X.                ",
"                  + q 4.$X+X5._ M 0 w  .+.                      ",
"                  > < 4.    F.s ; c x  .+.                      ",
"                  x               y p                           ",
"                                  u t                           ",
"                                    5                           ",
"                                                                ",
"                                                                ",
"                                                                "
};
