/* XPM */
static char *_b2d646c30214541fe74c5266c80ccc46WkSUWvJYANGNqZL[] = {
/* columns rows colors chars-per-pixel */
"32 32 53 1 ",
"  c black",
". c #040403",
"X c #050704",
"o c #060705",
"O c #060805",
"+ c #080907",
"@ c #0A0B07",
"# c #0A0C07",
"$ c #090909",
"% c #0A0B08",
"& c #0B0C09",
"* c #0D0E09",
"= c #0D0F0B",
"- c #0D110B",
"; c #0F120C",
": c #0F130D",
"> c #11130D",
", c #11140E",
"< c gray7",
"1 c #141711",
"2 c #151912",
"3 c #171B14",
"4 c #181C14",
"5 c #191D17",
"6 c #1A1E18",
"7 c #1D1D1D",
"8 c #221812",
"9 c #1B2017",
"0 c #1B2019",
"q c #1C2118",
"w c #1D231B",
"e c #1E241A",
"r c #232A1E",
"t c #1A2239",
"y c #272E21",
"u c #372B20",
"i c #2A3324",
"p c #353D2B",
"a c #363F2D",
"s c #423426",
"d c #37412D",
"f c #38422E",
"g c #584430",
"h c #47543C",
"j c #4B503B",
"k c #785D3F",
"l c #3D545F",
"z c #4E5C42",
"x c #58746A",
"c c #957856",
"v c #699484",
"b c #7AB78E",
"n c #97C7A5",
/* pixels */
"yyr5;X##@#####@@@###%#####X>5ryy",
"zha0*wj33wjjiidrwdiijje33jw;wphz",
"ww5e%Xiewj***;i&*i*;**jwei@#90we",
"aw9j*@@fi**;<<7776<<;**id&&&jwwh",
"wwyw**X***<<ttlttltt<<**&&*&ejew",
"fe6if*>X,<tlvlvtlvtllt<3,&;diewh",
"awa*&*%<<lvbttnttnttbll<<O***dwh",
"f6i&&%<lv  v  v  v  v  lt<*&*iwh",
"awj*&7lvblvnlvnltnlvnltvlt<,;jwh",
"a5wd<lvtl  l  l  l  l  ltlt<dwwh",
"awi<lvt vttvttvttvttvttv tlt<ywh",
"a5;<txxxxvvbxvbxvbxvbxvxvxxt<;wh",
"a6&@O888888888OOOO88888888OO@&eh",
"f6@&88ckcccgcck8ccccgcccgk88%%wh",
"aw<<8ugssgssgks8cgggsgggsgu8<3wh",
"aw;78skskkkskkg8kkkkskkkuks87<wh",
"aw%<8sgukkksgkg8cgkgskkksgs8<*eh",
"aw3<8sgsgkkggsg8ksggsgkgsgs8<5wh",
"aw>%8ugugggssvs8gvsgugggggu8%,wh",
"aw%%88susgsuu8b8b8ususgsus88%*wh",
"aw<%Olbvvbnbbv888vbvbnbvbvlX%3wh",
"aw;<Otllllllll888llllllllltX<>wh",
"aw+<88888u88u8l8l8888uu88888<%wh",
"aw;7O8s8sss88l888l8s8sss8suX71wh",
"aw%<8us8gsg8s8s8s8ssugsgusu8<=wh",
"awX78usugggugsg8gsggsgggugu87%wh",
"aw%<8sguggguggg8gggguggssgs8<=wh",
"ww%<8ugsgggsggg8ggggsggsugu8<%ww",
"awX<8sgsgsguggs8gsggusgsugs8<Xwh",
"www7Xususugugss8gsssusss8suO7www",
"zha<O8suuss8ssu8gssu8uuu8u8O<ahz",
"zzh%                        <hzz"
};
