/* XPM */
static char *e5dd272c43eb4791fe1f3faeefd3137aTc1PswhiG24fqetz[] = {
/* columns rows colors chars-per-pixel */
"32 32 23 1 ",
"  c #040807",
". c #050903",
"X c #050D0A",
"o c #060905",
"O c #09170F",
"+ c #0E1307",
"@ c #0E2618",
"# c #0F2B11",
"$ c #0F2B15",
"% c #101309",
"& c #11230B",
"* c #192311",
"= c #19471C",
"- c #1F230B",
"; c #202311",
": c #214719",
"> c #233911",
", c #236323",
"< c #2B391B",
"1 c #326C26",
"2 c #343911",
"3 c #35391B",
"4 c #375218",
/* pixels */
"%-O#2=>$$O#$$#+-O&&$&:-O-&,$$##+",
"oO#>=$&=>>>-#OO O=&#OO+O#$>=$#+-",
"@#>=$$O$=$,=#O +#>$#+OO#==4=$=# ",
"=$&&#O+--$,=&####=>O#O##=4##&4==",
"*=,#O+#$$-$$$:&&#O+O:#+O#=O+#=4>",
"==,#+#$$&&-$=-==,>>$&$=>=## O$=,",
"=$>4=#4>+-O&,#-#$=,=$$$$4,&#+$$O",
"=->=-,>$#$O,=+ +-OOO#O+-$>&$-$$O",
";O##+,&#&&+>$-O +&=--$$$#O$&-==O",
"= +#+>$O&&-#22+..&$#$=$&&#$-&&=,",
"3 OO#$$O$>=4=&$&-O#O>>#+OO-$===,",
"3O.##$$#-$>=4,>$$>$O=,->=$&>==,-",
"1--OO$=+##OOO#-+>$$O,>:&,,=&&-#O",
"*&$>+==+>$-&$2,>##OO4&-#+#:2#O  ",
"<>,=O,=O$$-=&#=$O>,#=$+#-:&$:#+.",
"%+##-=$#.+-&>- OO$,O&$-.O-=&#O -",
"; O#&4-O  &&O>& O+-=$-OO#$>#:-O ",
"@##-&>2O+O&>#==+$>#$,-$$O>,+===+",
"@#O++##+#+$>OO--=4O$=#$=O4>O=&$-",
";+-$$===$O=>+&$>O#OOOO##+=&.+##&",
"1->,$&$==#>4+$>&$==4=>$##&=##+.#",
"1$,=&#O+O#,=O#-#$$=>,4>$+=$#O.OO",
"==&&-$-$$$=&-&$++.-#-#$$O&=O-O.+",
"===#&$O-$&$##=&+ +-&=+$=#$,+##+ ",
"=&$#&&=&-+O-+OO-+O+4=O&#$,>#>>#-",
"*&&O#&>=$$&$>,=&--:>$+#O=>#=,,>$",
"==&+.##>=>&&$>44>>->&-&&$$-+#>4&",
";4=#+O>#+O#-OO+#&&#$$&#&$#++#===",
"=>=$##>=-#+#O=>#-#:$>=&##+O#$&$&",
"@#=&=>=>#O+O-&>-O O#,=&>&$&=,>#+",
"X+$$&$$#+O#+#$>O. O##=>=$&=,>#+#",
"oO+$&:2#+OO#-&>+-O.+--O$=$##-O+#"
};
