/* XPM */
static char *_19c188b26f3449efff84d0c5e1a6f912rzpYriyR0VaMfib[] = {
/* columns rows colors chars-per-pixel */
"32 32 194 2 ",
"   c None",
".  c black",
"X  c #000C0C",
"o  c #020010",
"O  c #050013",
"+  c #05001A",
"@  c #131313",
"#  c #151515",
"$  c #161616",
"%  c #181818",
"&  c #191919",
"*  c gray10",
"=  c #1B1B1B",
"-  c gray11",
";  c #1D1D1D",
":  c #050027",
">  c #090026",
",  c #050029",
"<  c #0B002F",
"1  c #0B0032",
"2  c #0B0033",
"3  c #0B0034",
"4  c #0E0034",
"5  c #0E0035",
"6  c #0E0036",
"7  c #0D0539",
"8  c #110036",
"9  c #110037",
"0  c #140037",
"q  c #04263C",
"w  c #003333",
"e  c #003737",
"r  c #202020",
"t  c #222222",
"y  c #232323",
"u  c gray14",
"i  c #272727",
"p  c gray16",
"a  c #2A2A2A",
"s  c #2C2C2C",
"d  c #2D2D2D",
"f  c #2F2F2F",
"g  c gray19",
"h  c #323232",
"j  c gray20",
"k  c #343434",
"l  c gray21",
"z  c #373737",
"x  c gray23",
"c  c #3C3C3C",
"v  c gray24",
"b  c #3F3F3F",
"n  c #78513F",
"m  c #1E0045",
"M  c #200047",
"N  c #25004D",
"B  c #2A0052",
"V  c #2D0053",
"C  c #30005B",
"Z  c #291153",
"A  c #330060",
"S  c #350061",
"D  c #350062",
"F  c #350063",
"G  c #280078",
"H  c #3F0078",
"J  c #182660",
"K  c #22266A",
"L  c #273660",
"P  c #2F386E",
"I  c #2F3C6F",
"U  c #30386E",
"Y  c #333F72",
"T  c #363C7D",
"R  c #40007A",
"E  c #40007B",
"W  c #41007C",
"Q  c #005559",
"!  c #274259",
"~  c #325454",
"^  c #034B66",
"/  c #2D5063",
"(  c gray25",
")  c #414141",
"_  c gray27",
"`  c gray29",
"'  c #4C4C4C",
"]  c #555555",
"[  c #585858",
"{  c #5D5D5D",
"}  c #5F5F5F",
"|  c #4C547F",
" . c #606060",
".. c #616666",
"X. c #656565",
"o. c #637E7E",
"O. c #6B7878",
"+. c #747474",
"@. c gray46",
"#. c #767676",
"$. c gray48",
"%. c #A16F56",
"&. c #CA896B",
"*. c #E89E7D",
"=. c #320090",
"-. c #0F6595",
";. c #33679D",
":. c #106FA1",
">. c #106FA2",
",. c #50548C",
"<. c #4F00FF",
"1. c #4D2BF8",
"2. c #6F2AFF",
"3. c #5F54D5",
"4. c #884EFF",
"5. c #8178F8",
"6. c #A160FF",
"7. c #08819C",
"8. c #018E98",
"9. c #018E9E",
"0. c #328B8B",
"q. c #0886A4",
"w. c #058EA2",
"e. c #0C8CB2",
"r. c #7AA1A1",
"t. c #7CBABA",
"y. c #07B3C9",
"u. c #1EB0C4",
"i. c #22AFCB",
"p. c #71A9C8",
"a. c #00DFDF",
"s. c #1ED4D4",
"d. c #30C0D0",
"f. c #28D2D2",
"g. c #22D9D9",
"h. c #00E2E2",
"j. c #3BE6E6",
"k. c #3EE6E6",
"l. c #47C9C9",
"z. c #68CACA",
"x. c #74D6D6",
"c. c #4BE8E8",
"v. c #51E0E0",
"b. c #67EBEB",
"n. c #7FEEEE",
"m. c #808080",
"M. c gray51",
"N. c gray52",
"B. c #8B8B8B",
"V. c gray55",
"C. c #8E8E8E",
"Z. c gray57",
"A. c #929292",
"S. c #979797",
"D. c gray60",
"F. c gray61",
"G. c #95BCBC",
"H. c gray63",
"J. c #AEAEAE",
"K. c #AFAFAF",
"L. c #A3B6B6",
"P. c #A6B6B6",
"I. c gray71",
"U. c #BCBCBC",
"Y. c gray",
"T. c #DDAB91",
"R. c #90B6E8",
"E. c #BFBBFB",
"W. c #9FCCCC",
"Q. c #86D5D5",
"!. c #93D4D4",
"~. c #B6DDDD",
"^. c #80EAEF",
"/. c #8FF0F0",
"(. c #A3E2EA",
"). c #A5F3F3",
"_. c #ADF4F4",
"`. c #BBF5F5",
"'. c #C6CBCB",
"]. c gray79",
"[. c #CBCBCB",
"{. c gray80",
"}. c gray81",
"|. c gray86",
" X c #DDDDDD",
".X c #CDEDED",
"XX c #CEF1F5",
"oX c #CDF8F8",
"OX c #D2F1F5",
"+X c #D9FAFA",
"@X c #E6E6E6",
"#X c #E6FBFB",
"$X c #ECFBFB",
"%X c white",
/* pixels */
"                      . . . . .                                 ",
"                    . x [ p _ { .                               ",
"                  . g = %.n $ z u .                   a.        ",
"                  . ] %.T.&.%.u { .                     f.      ",
"                  . u h.%.h.n z z .                     `.      ",
"                    . %.*.%.n &..                 a.  a.    a.  ",
"                    . c $ z %.$                     c.  a.`.  a.",
"                    . - &.$ n . . . . . .           _.j.a.      ",
"                  . . +.' ' +.I.L.Q.[.K.B.. . . .     %X        ",
"                . I.+.' ' +.I. X+X).z./.x.}.I. XB.. . 5.#X~     ",
"              . I. X+.' +.I. X%X XM.X.C.N.t.C.C.{ =.E.oXR.6..   ",
"              . %X[.' +.F.I.%X XA.x + , o - ` ` =.E.^.3.6..     ",
"  . .       . }.D.@X+.F.I.%XI.A.c + + B > . . . .Xn.1.6..       ",
". 4.2.. . . I.I.{ U.' I. XI. X .- + > > B u.. a.k.  e .   a.    ",
". 2.<.G +.%XI.X.c  X` I.G.'.H.z + > < > y.,.$X0.  a.a.          ",
". <.2.G I.+.+.{ ( [.' I.v.r.$.` + > > < I B XXB .               ",
"  . . ' +.'  .< M [./.s.W.I.U.M.` Q 7.L < > T OXB . .     a.    ",
"      . . . 8 C ^ g.+.' I. XF.U.+.Q.+ q.-.> B B b.D B . .       ",
"          V R 1 8.~.I.+.I.I.|.A.l.o.` , < < < / i.B R R B .     ",
"        . R K w.+  XI.' +.!.!. XI.K.+.{ + m > p.! > a.> R B .   ",
"      . R B 7 q 9.G.F.s ' O.P.I.|.I.S.A.+.+ N (.,.> ;.> > R .   ",
"    . W B 6 + 6 J ..c $ = - - +.F.I.I.+.+ > m d./ Z > > B .     ",
"  . W B 6 , 6 M D M = @ @ + + O @ = @ + > > -.>.m >.> B .       ",
"  . R 6 , 6 M D M 1 ( s i + 6 + - s p = 8 < Y , m >.B .         ",
"    . R D M M M 6 + _ _ s + M 6 + s _ g 8 P e.B W X w           ",
"      . 0 B D 6 , 8 y _ _ + 6 m 6 t ( _ t 6 B R . .   . .       ",
"          . 0 B D M 6 _ c y , D M 1 g _ z B D . . . .   . . .   ",
"              . 0 B B s _ a B B A R r _ _ t . . . . . . a.. . . ",
"                  . . +.' - . . . . . ' +.+.- . . . . a.. . . . ",
"              . . I.%XI.I.+.. . . . . I.%XI.+.. . . a.. . .     ",
"            . I.%XI.I.I.I.' . . . . I.%XI.I.' . . . .           ",
"              . . . . . . . .       . . . . . . .               "
};
